<?xml version="1.0" encoding="UTF-8"?>
<svg version="1.1" xmlns="http://www.w3.org/2000/svg" width="512" height="512">
<path d="M0 0 C1.17033279 -0.00852997 2.34066559 -0.01705994 3.54646301 -0.02584839 C4.81671326 -0.02494202 6.0869635 -0.02403564 7.39570618 -0.02310181 C8.75804002 -0.02909167 10.12037049 -0.03589827 11.48269653 -0.04345703 C15.17306303 -0.0610817 18.8633367 -0.06581103 22.55374122 -0.0670886 C24.86382806 -0.06851323 27.17389153 -0.07278881 29.48397255 -0.07808304 C37.55612808 -0.09657451 45.62821767 -0.10475512 53.70039368 -0.10317993 C61.20305619 -0.10198008 68.70543031 -0.12305372 76.20801991 -0.15466726 C82.66602249 -0.18090111 89.12393133 -0.1915442 95.58198673 -0.19026911 C99.43158892 -0.18976139 103.28093491 -0.19533835 107.13048363 -0.21662521 C110.75612389 -0.23612702 114.38126678 -0.23605173 118.00692558 -0.22159195 C119.95497449 -0.21853581 121.90302409 -0.23509807 123.85099792 -0.25247192 C136.72088594 -0.16131836 146.37164754 3.77405702 156.03755188 12.26742554 C163.48556861 20.1852615 169.3472185 30.22976318 169.23286438 41.32211304 C169.22641907 42.43070679 169.21997375 43.53930054 169.21333313 44.68148804 C169.19657532 45.82359741 169.1798175 46.96570679 169.16255188 48.14242554 C169.15352844 49.30773804 169.144505 50.47305054 169.13520813 51.67367554 C169.1117262 54.53847131 169.07888329 57.40284088 169.03755188 60.26742554 C170.07801163 60.25854309 171.11847137 60.24966064 172.19046021 60.24050903 C182.0320726 60.15915582 191.87361609 60.09933235 201.71548939 60.06017685 C206.77440298 60.03936932 211.83304347 60.01117747 216.89179993 59.96566772 C221.78070418 59.92196504 226.66934699 59.89823712 231.55843163 59.88791656 C233.41661884 59.88056881 235.27479297 59.86622111 237.13286781 59.84450531 C252.67528468 59.670206 263.94648018 61.64307793 276.03755188 72.26742554 C280.75973396 77.28748181 284.4321641 82.88360809 287.03755188 89.26742554 C287.39462219 90.13625366 287.7516925 91.00508179 288.11958313 91.90023804 C291.03095626 102.57940246 290.52220895 116.58043967 285.03755188 126.26742554 C278.77352432 136.60377801 271.07336494 143.42715665 260.03755188 148.26742554 C259.37755188 148.26742554 258.71755188 148.26742554 258.03755188 148.26742554 C258.04840675 148.98517001 258.05926162 149.70291449 258.07044542 150.4424088 C258.13466413 158.03550681 257.74429915 165.50471832 257.10191345 173.06790161 C257.00123577 174.30009847 256.9005581 175.53229533 256.79682958 176.80183148 C256.51920809 180.18741933 256.23722214 183.57258987 255.95329523 186.95765114 C255.64702601 190.62210791 255.3464861 194.28703536 255.04519653 197.9519043 C254.45508718 205.11886647 253.85971574 212.28538206 253.26248647 219.45175406 C252.56591584 227.81226273 251.87438844 236.1731863 251.18299334 244.53412428 C249.94821253 259.46379794 248.70854805 274.39306212 247.46626282 289.32211304 C246.26333895 303.77816125 245.06436162 318.23452994 243.86958313 332.69125366 C242.56622134 348.46175639 241.26074416 364.23208124 239.95155275 380.00210118 C239.81165347 381.68729603 239.67175473 383.37249092 239.53185654 385.05768585 C239.4630352 385.88665591 239.39421387 386.71562596 239.32330704 387.56971632 C238.84071577 393.38417106 238.35955265 399.19874296 237.87891006 405.01335907 C237.29205793 412.11207661 236.702711 419.21058212 236.11030985 426.30883881 C235.80866444 429.92384526 235.50803296 433.53892761 235.21034813 437.15426254 C230.89860339 489.47986468 230.89860339 489.47986468 213.33442688 504.50961304 C204.72102285 511.10150388 195.83629416 512.56766967 185.24732971 512.53485107 C184.17105214 512.53938219 183.09477457 512.5439133 181.98588252 512.54858172 C178.38489774 512.56122661 174.78406419 512.55960526 171.18305969 512.55795288 C168.59892075 512.56393808 166.0147836 512.5707436 163.4306488 512.57830811 C157.14266705 512.5948938 150.8547228 512.60041656 144.56672099 512.60153286 C139.45303696 512.60248454 134.33936525 512.60660082 129.22568512 512.61293411 C114.71365069 512.6305403 100.2016458 512.63977402 85.68960062 512.63827316 C84.51702204 512.6381533 84.51702204 512.6381533 83.320755 512.63803101 C82.14673744 512.63790836 82.14673744 512.63790836 80.94900236 512.63778324 C68.26950261 512.63697064 55.59012174 512.65610349 42.91065636 512.68430774 C29.87794016 512.71306798 16.84528187 512.72684629 3.81253314 512.72512019 C-3.49891256 512.72445734 -10.81023366 512.7299031 -18.1216507 512.75147629 C-24.99996377 512.77164214 -31.87801004 512.77098232 -38.75633621 512.75644302 C-41.27699035 512.75435391 -43.79766094 512.75906183 -46.3182869 512.77116394 C-49.7672623 512.7866472 -53.2153348 512.77728676 -56.66429138 512.76190186 C-57.65468564 512.77218898 -58.64507989 512.78247611 -59.6654861 512.79307497 C-70.47260597 512.68701504 -79.49996295 508.8797476 -87.96244812 502.26742554 C-88.57862 501.78918335 -89.19479187 501.31094116 -89.82963562 500.81820679 C-101.33169093 490.67083799 -103.91240648 475.27741249 -105.06889343 460.80062866 C-105.16402348 459.67255893 -105.25915352 458.54448919 -105.35716629 457.38223553 C-105.6741928 453.60484829 -105.98234978 449.8267905 -106.29057312 446.04867554 C-106.51740854 443.31609448 -106.74613617 440.58367256 -106.97477722 437.85124207 C-107.53312698 431.16491361 -108.0848867 424.47805691 -108.63443947 417.79100031 C-109.27981832 409.94078951 -109.9314599 402.09110248 -110.58350229 394.2414428 C-111.4855005 383.38157909 -112.38586636 372.52158183 -113.28245544 361.66127014 C-115.21550221 338.24901441 -117.16681593 314.83834013 -119.12904191 291.42851245 C-120.18481366 278.83097089 -121.2366415 266.23309977 -122.28797531 253.63518715 C-123.0776368 244.17388118 -123.86872371 234.71269901 -124.66325378 225.25180054 C-125.34350518 217.1510153 -126.02018286 209.04994065 -126.6924572 200.94848937 C-127.03745418 196.79222763 -127.38406072 192.63611688 -127.73504639 188.48035622 C-128.058336 184.65207917 -128.37695568 180.82344183 -128.69201803 176.99447918 C-128.86049104 174.96137184 -129.03382216 172.92866884 -129.20737076 170.89598846 C-129.82413796 163.33288057 -130.10075233 155.85520836 -129.96244812 148.26742554 C-130.89057312 148.10242554 -131.81869812 147.93742554 -132.77494812 147.76742554 C-143.10582054 144.77084388 -150.9610456 136.1503412 -156.20463562 127.13070679 C-157.21542003 125.19398484 -158.13697255 123.29003629 -158.96244812 121.26742554 C-159.31951843 120.39859741 -159.67658875 119.52976929 -160.04447937 118.63461304 C-162.9558525 107.95544862 -162.44710519 93.9544114 -156.96244812 84.26742554 C-149.63371217 72.17418406 -139.59241094 64.12205718 -125.96244812 60.26742554 C-123.09933174 60.09302689 -120.33844924 60.01377998 -117.4785614 60.04037476 C-116.64863174 60.0400827 -115.81870209 60.03979065 -114.96362305 60.03948975 C-112.23656036 60.04087651 -109.50977523 60.05640683 -106.78276062 60.07211304 C-104.88561655 60.07584549 -102.98847054 60.07869137 -101.09132385 60.08068848 C-96.1100579 60.08830663 -91.12890949 60.10793949 -86.14768982 60.13009644 C-81.05991709 60.15059405 -75.97212528 60.15969856 -70.88432312 60.16976929 C-60.91031328 60.19118711 -50.9363905 60.22530109 -40.96244812 60.26742554 C-40.99386902 59.21784668 -40.99386902 59.21784668 -41.02592468 58.14706421 C-41.11007746 54.9165029 -41.16141883 51.68617328 -41.21244812 48.45492554 C-41.24596375 47.35471069 -41.27947937 46.25449585 -41.31401062 45.12094116 C-41.46429668 32.38419757 -37.34055179 22.80215237 -28.96244812 13.26742554 C-21.05913175 5.83306686 -11.0577088 0.03660117 0 0 Z M-5.77494812 34.70492554 C-12.69179034 42.80751214 -10.96244812 48.99629855 -10.96244812 60.26742554 C38.53755188 60.26742554 88.03755188 60.26742554 139.03755188 60.26742554 C139.95279435 46.84411302 139.95279435 46.84411302 134.60005188 35.45492554 C129.45424849 31.06216654 125.55570906 30.1464621 118.92771912 30.13371277 C117.92126343 30.12944778 116.91480774 30.1251828 115.87785339 30.12078857 C114.78473846 30.12124176 113.69162354 30.12169495 112.56538391 30.12216187 C111.40546936 30.11880325 110.24555481 30.11544464 109.05049133 30.11198425 C105.21543813 30.10248394 101.38042862 30.10053163 97.54536438 30.09945679 C95.55285853 30.09705586 93.56035266 30.09465319 91.56784713 30.09199637 C85.30367647 30.08386221 79.03952018 30.08141119 72.77534485 30.0821228 C66.32414602 30.08272339 59.87303085 30.07217295 53.42185318 30.05637914 C47.87348957 30.04328212 42.32515323 30.03793981 36.77677429 30.03857821 C33.46726415 30.03883256 30.15784497 30.03509017 26.84834671 30.02540016 C23.15499688 30.01559842 19.46186224 30.01847919 15.76850891 30.02450562 C14.67944244 30.01888611 13.59037598 30.0132666 12.4683075 30.00747681 C2.6087098 30.011368 2.6087098 30.011368 -5.77494812 34.70492554 Z " fill="#B7BECB" transform="translate(191.9624481201172,-0.267425537109375)"/>
<path d="M0 0 C1.48682455 0.24260512 1.48682455 0.24260512 3.00368595 0.49011135 C6.98184115 1.05516656 10.92786731 1.15266804 14.94102478 1.15821838 C16.09543268 1.16562535 16.09543268 1.16562535 17.27316195 1.17318195 C19.83567038 1.18846267 22.39815394 1.19689182 24.96069336 1.20532227 C26.80406917 1.21490821 28.64744282 1.22491871 30.49081421 1.23532104 C35.48402821 1.26229852 40.47725159 1.28334674 45.47049785 1.30332303 C50.69287868 1.32522684 55.91523083 1.35259399 61.1375885 1.37937927 C71.02193614 1.42924681 80.90629975 1.47420763 90.79067856 1.51740164 C102.04578476 1.56682483 113.30086217 1.62172408 124.55594051 1.67708123 C147.70393366 1.79081008 170.85195475 1.89747463 194 2 C194 11.9 194 21.8 194 32 C190.7 33.32 187.4 34.64 184 36 C179.46175292 41.43521695 179.42908626 46.41219921 179.49879456 53.29910278 C179.49326016 54.32244402 179.48772576 55.34578525 179.48202366 56.40013683 C179.46843361 59.82185676 179.48337797 63.24284524 179.49829102 66.66455078 C179.49450731 69.12049672 179.48900685 71.57644053 179.48191833 74.03237915 C179.46940429 80.00562104 179.47552753 85.97857722 179.49059392 91.95179142 C179.50747387 98.90935351 179.50424135 105.86686315 179.50049984 112.82443939 C179.49462492 125.23798282 179.50877949 137.65142473 179.53344727 150.06494141 C179.55737734 162.10859989 179.56444704 174.15212279 179.55395508 186.19580078 C179.54254584 199.31589202 179.54061506 212.4359206 179.55505317 225.55601108 C179.556579 226.95490129 179.55809935 228.35379151 179.55961418 229.75268173 C179.5607509 230.78507037 179.5607509 230.78507037 179.56191059 231.83831535 C179.56665257 236.68766165 179.56480267 241.53697996 179.56054878 246.38632584 C179.55510794 252.91166377 179.56586307 259.43684107 179.58750343 265.96215439 C179.59307685 268.35953894 179.59353155 270.75694154 179.58855057 273.15432739 C179.58261296 276.42138315 179.59507411 279.68786089 179.61231995 282.9548645 C179.6063099 283.90826253 179.60029986 284.86166056 179.59410769 285.84394944 C179.6419126 290.80848613 179.95210272 293.87524035 183 298 C183 298.66 183 299.32 183 300 C186.64125692 301.49934109 190.24725576 302.74908525 194 304 C194 323.8 194 343.6 194 364 C161.34110794 364.16121214 161.34110794 364.16121214 147.61523438 364.1953125 C138.15217378 364.21901173 128.68925604 364.24681427 119.22631836 364.30175781 C112.33331893 364.34176057 105.44043582 364.36746465 98.54732352 364.37635398 C94.90103323 364.38154615 91.25507559 364.39365657 87.60889244 364.42292023 C83.52777029 364.4554057 79.447218 364.45595086 75.3659668 364.45410156 C74.17121735 364.46848267 72.9764679 364.48286377 71.74551392 364.49768066 C60.22736708 364.44142296 51.06375017 361.08213179 42 354 C41.38382813 353.52175781 40.76765625 353.04351562 40.1328125 352.55078125 C28.63075719 342.40341246 26.05004164 327.00998695 24.89355469 312.53320312 C24.79842464 311.40513339 24.7032946 310.27706366 24.60528183 309.11480999 C24.28825532 305.33742275 23.98009834 301.55936496 23.671875 297.78125 C23.44503958 295.04866894 23.21631195 292.31624702 22.9876709 289.58381653 C22.42932114 282.89748807 21.87756142 276.21063137 21.32800865 269.52357477 C20.6826298 261.67336397 20.03098822 253.82367694 19.37894583 245.97401726 C18.47694762 235.11415355 17.57658176 224.25415629 16.67999268 213.3938446 C14.74694591 189.98158887 12.79563219 166.57091459 10.83340621 143.16108692 C9.77763446 130.56354535 8.72580662 117.96567423 7.67447281 105.36776161 C6.88481132 95.90645564 6.09372441 86.44527347 5.29919434 76.984375 C4.61894294 68.88358976 3.94226526 60.78251512 3.26999092 52.68106383 C2.92499394 48.52480209 2.5783874 44.36869135 2.22740173 40.21293068 C1.90411212 36.38465363 1.58549244 32.5560163 1.27043009 28.72705364 C1.10195708 26.6939463 0.92862596 24.6612433 0.75507736 22.62856293 C0.13831016 15.06545503 -0.13830421 7.58778282 0 0 Z " fill="#C3C9D8" transform="translate(62,148)"/>
<path d="M0 0 C1.17033279 -0.00852997 2.34066559 -0.01705994 3.54646301 -0.02584839 C4.81671326 -0.02494202 6.0869635 -0.02403564 7.39570618 -0.02310181 C8.75804002 -0.02909167 10.12037049 -0.03589827 11.48269653 -0.04345703 C15.17306303 -0.0610817 18.8633367 -0.06581103 22.55374122 -0.0670886 C24.86382806 -0.06851323 27.17389153 -0.07278881 29.48397255 -0.07808304 C37.55612808 -0.09657451 45.62821767 -0.10475512 53.70039368 -0.10317993 C61.20305619 -0.10198008 68.70543031 -0.12305372 76.20801991 -0.15466726 C82.66602249 -0.18090111 89.12393133 -0.1915442 95.58198673 -0.19026911 C99.43158892 -0.18976139 103.28093491 -0.19533835 107.13048363 -0.21662521 C110.75612389 -0.23612702 114.38126678 -0.23605173 118.00692558 -0.22159195 C119.95497449 -0.21853581 121.90302409 -0.23509807 123.85099792 -0.25247192 C136.72088594 -0.16131836 146.37164754 3.77405702 156.03755188 12.26742554 C163.48556861 20.1852615 169.3472185 30.22976318 169.23286438 41.32211304 C169.22641907 42.43070679 169.21997375 43.53930054 169.21333313 44.68148804 C169.19657532 45.82359741 169.1798175 46.96570679 169.16255188 48.14242554 C169.15352844 49.30773804 169.144505 50.47305054 169.13520813 51.67367554 C169.1117262 54.53847131 169.07888329 57.40284088 169.03755188 60.26742554 C170.07801163 60.25854309 171.11847137 60.24966064 172.19046021 60.24050903 C182.0320726 60.15915582 191.87361609 60.09933235 201.71548939 60.06017685 C206.77440298 60.03936932 211.83304347 60.01117747 216.89179993 59.96566772 C221.78070418 59.92196504 226.66934699 59.89823712 231.55843163 59.88791656 C233.41661884 59.88056881 235.27479297 59.86622111 237.13286781 59.84450531 C252.67528468 59.670206 263.94648018 61.64307793 276.03755188 72.26742554 C280.75973396 77.28748181 284.4321641 82.88360809 287.03755188 89.26742554 C287.39462219 90.13625366 287.7516925 91.00508179 288.11958313 91.90023804 C291.03095626 102.57940246 290.52220895 116.58043967 285.03755188 126.26742554 C278.71577977 136.69906303 269.96215581 145.39165861 257.99059236 148.86055535 C250.26495026 150.56242326 242.63316077 150.55016334 234.75523376 150.52812195 C233.21660311 150.53114648 231.67797395 150.53503748 230.13934743 150.53971452 C225.93229511 150.54996428 221.7253283 150.54782043 217.51826906 150.54353392 C212.97283295 150.54106121 208.42741714 150.55008761 203.88198853 150.55757141 C194.9851997 150.57030514 186.08844108 150.57211377 177.19164468 150.56977115 C169.95847743 150.5679864 162.72531933 150.569741 155.49215317 150.57399559 C154.461763 150.57459078 153.43137283 150.57518597 152.36975872 150.57579919 C150.27636183 150.57701097 148.18296495 150.57822511 146.08956806 150.57944157 C126.468346 150.59031194 106.84714113 150.58815696 87.2259181 150.58205672 C69.28679477 150.57688764 51.34772575 150.58814369 33.40861316 150.60715494 C14.97547121 150.62653956 -3.45764505 150.63478827 -21.89079726 150.63103169 C-32.2343033 150.62912065 -42.57776312 150.63159786 -52.92126083 150.64574623 C-61.726497 150.65766891 -70.53165848 150.65905492 -79.33689569 150.64695606 C-83.82649111 150.64107373 -88.31595 150.6399501 -92.80553627 150.65195847 C-96.92119303 150.66283847 -101.0365996 150.65968888 -105.15224476 150.64569678 C-106.63532574 150.64305568 -108.11842647 150.64539783 -109.60148804 150.65343264 C-124.60776813 150.72904284 -136.92981263 148.5756005 -148.25151062 138.16195679 C-153.02261198 133.11388137 -156.33116257 127.68245892 -158.96244812 121.26742554 C-159.51158875 119.93324585 -159.51158875 119.93324585 -160.07182312 118.57211304 C-162.94752604 107.90174168 -162.43790105 93.93815507 -156.96244812 84.26742554 C-149.63371217 72.17418406 -139.59241094 64.12205718 -125.96244812 60.26742554 C-123.09933174 60.09302689 -120.33844924 60.01377998 -117.4785614 60.04037476 C-116.64863174 60.0400827 -115.81870209 60.03979065 -114.96362305 60.03948975 C-112.23656036 60.04087651 -109.50977523 60.05640683 -106.78276062 60.07211304 C-104.88561655 60.07584549 -102.98847054 60.07869137 -101.09132385 60.08068848 C-96.1100579 60.08830663 -91.12890949 60.10793949 -86.14768982 60.13009644 C-81.05991709 60.15059405 -75.97212528 60.15969856 -70.88432312 60.16976929 C-60.91031328 60.19118711 -50.9363905 60.22530109 -40.96244812 60.26742554 C-40.99386902 59.21784668 -40.99386902 59.21784668 -41.02592468 58.14706421 C-41.11007746 54.9165029 -41.16141883 51.68617328 -41.21244812 48.45492554 C-41.24596375 47.35471069 -41.27947937 46.25449585 -41.31401062 45.12094116 C-41.46429668 32.38419757 -37.34055179 22.80215237 -28.96244812 13.26742554 C-21.05913175 5.83306686 -11.0577088 0.03660117 0 0 Z M-5.77494812 34.70492554 C-12.69179034 42.80751214 -10.96244812 48.99629855 -10.96244812 60.26742554 C38.53755188 60.26742554 88.03755188 60.26742554 139.03755188 60.26742554 C139.95279435 46.84411302 139.95279435 46.84411302 134.60005188 35.45492554 C129.45424849 31.06216654 125.55570906 30.1464621 118.92771912 30.13371277 C117.92126343 30.12944778 116.91480774 30.1251828 115.87785339 30.12078857 C114.78473846 30.12124176 113.69162354 30.12169495 112.56538391 30.12216187 C111.40546936 30.11880325 110.24555481 30.11544464 109.05049133 30.11198425 C105.21543813 30.10248394 101.38042862 30.10053163 97.54536438 30.09945679 C95.55285853 30.09705586 93.56035266 30.09465319 91.56784713 30.09199637 C85.30367647 30.08386221 79.03952018 30.08141119 72.77534485 30.0821228 C66.32414602 30.08272339 59.87303085 30.07217295 53.42185318 30.05637914 C47.87348957 30.04328212 42.32515323 30.03793981 36.77677429 30.03857821 C33.46726415 30.03883256 30.15784497 30.03509017 26.84834671 30.02540016 C23.15499688 30.01559842 19.46186224 30.01847919 15.76850891 30.02450562 C14.67944244 30.01888611 13.59037598 30.0132666 12.4683075 30.00747681 C2.6087098 30.011368 2.6087098 30.011368 -5.77494812 34.70492554 Z " fill="#757982" transform="translate(191.9624481201172,-0.267425537109375)"/>
<path d="M0 0 C0.7810015 -0.00170885 1.562003 -0.0034177 2.3666712 -0.00517833 C4.97384084 -0.00846273 7.58075095 0.00251308 10.18789673 0.01345825 C12.06067906 0.01402259 13.93346183 0.01370536 15.8062439 0.01257324 C20.88427788 0.01199962 25.9622173 0.02375549 31.04022932 0.03772116 C36.34934478 0.05022693 41.65846242 0.0513989 46.96759033 0.05377197 C57.01846293 0.05998718 67.069292 0.07639859 77.12014544 0.09647095 C90.70378254 0.12300949 104.28743154 0.13380226 117.87108803 0.14547539 C139.269204 0.16427912 160.66722811 0.20412457 182.06533813 0.24050903 C182.06533813 29.94050903 182.06533813 59.64050903 182.06533813 90.24050903 C135.65415517 90.36141814 135.65415517 90.36141814 116.17861938 90.38699341 C102.74092161 90.40478169 89.30328035 90.42567303 75.8656311 90.46682739 C66.07827452 90.49678795 56.29096386 90.51609784 46.50356269 90.52277452 C41.3242294 90.5266755 36.14502746 90.53580367 30.96573639 90.5576992 C26.08367576 90.57816958 21.20179971 90.58432162 16.31970024 90.57983208 C14.53479189 90.58065258 12.74987691 90.58655502 10.96500587 90.59812546 C-4.79279185 90.69520344 -18.09542003 89.29059666 -30.22372437 78.13504028 C-34.99482573 73.08696487 -38.30337631 67.65554241 -40.93466187 61.24050903 C-41.30075562 60.35105591 -41.66684937 59.46160278 -42.04403687 58.54519653 C-44.91973978 47.87482518 -44.41011479 33.91123857 -38.93466187 24.24050903 C-30.3587163 10.08923091 -17.01100464 -0.13729605 0 0 Z " fill="#7F838C" transform="translate(73.93466186523438,59.759490966796875)"/>
<path d="M0 0 C3.57253295 1.95478218 5.04330089 3.47410353 7.3125 6.8125 C10.05767669 16.35055771 9.91721105 26.97103672 10.49609375 36.859375 C10.59648425 38.49833827 10.69740873 40.1372689 10.79882812 41.77616882 C11.06707869 46.13422677 11.32810576 50.49268893 11.58771896 54.85126877 C11.86208176 59.43505126 12.143417 64.01840589 12.42407227 68.60180664 C12.91752761 76.67467521 13.4058375 84.74784298 13.89135075 92.82119274 C14.34277108 100.32461197 14.80163346 107.82756152 15.2633667 115.33035278 C15.53446985 119.73640451 15.80448874 124.14251352 16.07128906 128.54882812 C16.83594393 141.15716457 17.62257107 153.76402282 18.41722107 166.37049866 C18.90306374 174.07952787 19.38604601 181.78873583 19.86856937 189.49797344 C20.21690172 195.05997756 20.56677321 200.62187625 20.9201355 206.18356323 C21.25611587 211.4718392 21.58823722 216.76034454 21.9176712 222.04903221 C22.04121617 224.02120062 22.16616192 225.99328186 22.29262543 227.96526527 C24.3904484 260.71596608 24.3904484 260.71596608 19.3125 266.8125 C15.53614194 270.16820045 11.49024934 271.55076309 6.3671875 271.26171875 C2.47320494 270.41037275 -0.81274803 268.55339434 -3.6875 265.8125 C-6.41051134 261.24233945 -7.22806959 257.2065153 -7.51538086 251.98046875 C-7.56800016 251.21271338 -7.62061947 250.44495802 -7.6748333 249.65393734 C-7.84643023 247.10327219 -7.99945919 244.55184977 -8.15234375 242 C-8.27055468 240.18259325 -8.38985741 238.36525722 -8.51017761 236.54798889 C-8.8307028 231.65506744 -9.13481245 226.761251 -9.43564606 221.8670845 C-9.68920163 217.77682411 -9.95256791 213.68722055 -10.21609497 209.59759235 C-12.00017464 181.90247702 -13.6366381 154.19859264 -15.16555977 126.48827267 C-16.17472202 108.20645218 -17.32752361 89.94122316 -18.60934448 71.6763916 C-19.32818344 61.39018183 -20.01857223 51.10207116 -20.6875 40.8125 C-20.74740112 39.89605713 -20.80730225 38.97961426 -20.86901855 38.03540039 C-21.16892279 33.38201262 -21.44196935 28.72918898 -21.65591431 24.0710144 C-21.74526437 22.22294904 -21.85960793 20.37614187 -21.9753418 18.52954102 C-22.23444567 11.68992292 -21.38726546 6.9921917 -16.6875 1.8125 C-11.15174516 -2.03845989 -6.30816063 -2.03144156 0 0 Z " fill="#A1A7B3" transform="translate(172.6875,181.1875)"/>
<path d="M0 0 C4.14908368 2.29491441 6.37422266 4.29523695 8.22245789 8.80470276 C9.53737646 13.89077062 8.91796232 19.19680289 8.6484375 24.39453125 C8.59173889 25.71299545 8.53504028 27.03145966 8.47662354 28.38987732 C7.8467421 42.60573331 6.87850315 56.80520006 5.89401245 71.00006104 C5.32006121 79.27642021 4.76712367 87.55420222 4.21484375 95.83203125 C4.1283768 97.12540909 4.1283768 97.12540909 4.04016304 98.44491577 C2.77585524 117.39622893 1.66471553 136.3557131 0.57138062 155.3175354 C-0.18795037 168.47443593 -0.96646828 181.63023222 -1.74594402 194.78595257 C-1.9836138 198.79757542 -2.22048749 202.80924073 -2.45507812 206.82104492 C-2.95077896 215.28955211 -3.46283075 223.75667402 -4.00485229 232.22235107 C-4.16111481 234.70442755 -4.3112789 237.18689669 -4.4548645 239.66973877 C-4.64995713 243.02591126 -4.86688436 246.37995552 -5.08984375 249.734375 C-5.140802 250.69676086 -5.19176025 251.65914673 -5.2442627 252.6506958 C-5.66570761 258.52420202 -6.80196797 262.25975492 -10.1796875 267.1171875 C-13.5997641 269.93081752 -17.35316197 270.98435304 -21.6796875 271.6796875 C-26.39152221 270.92242835 -29.60100707 269.26062301 -33.1796875 266.1171875 C-40.48885884 255.3818421 -35.62780136 234.91893389 -34.7890625 222.55078125 C-34.64256538 220.33771285 -34.49654488 218.12461285 -34.35096741 215.91148376 C-34.04189567 211.22303489 -33.73032163 206.53476245 -33.41665649 201.84661865 C-32.59596398 189.57426804 -31.7919619 177.30081823 -30.98828125 165.02734375 C-30.90851736 163.81118378 -30.82875347 162.5950238 -30.74657249 161.3420105 C-29.48574688 142.09956342 -28.30531777 122.8542128 -27.22351074 103.60092163 C-26.55875837 91.77207104 -25.86940523 79.94460336 -25.1796875 68.1171875 C-25.09958489 66.73640975 -25.0194865 65.35563175 -24.93939209 63.97485352 C-24.45736732 55.68914933 -23.95396091 47.40515149 -23.42391968 39.12237549 C-23.26338661 36.57193965 -23.1089282 34.02111286 -22.96109009 31.46990967 C-22.75893648 27.99948478 -22.53470535 24.53117367 -22.3046875 21.0625 C-22.25056198 20.04943787 -22.19643646 19.03637573 -22.14067078 17.99261475 C-21.67079648 11.3979299 -20.52168602 6.29208609 -15.5390625 1.55859375 C-10.37226566 -1.26307928 -5.57670819 -2.25866676 0 0 Z " fill="#979CA7" transform="translate(352.1796875,180.8828125)"/>
<path d="M0 0 C3.72800481 2.03592496 5.69395553 5.60467348 7.25 9.4375 C7.81042346 12.87213237 7.79065035 16.24886924 7.75793457 19.72314453 C7.76729451 21.25603969 7.76729451 21.25603969 7.77684355 22.81990242 C7.79277118 26.23694195 7.78016966 29.65326794 7.76757812 33.0703125 C7.77299931 35.52301448 7.78012195 37.97571321 7.78881836 40.42840576 C7.8051616 46.39428982 7.8027734 52.35989487 7.7911678 58.32576799 C7.78212517 63.17538637 7.78091305 68.02494836 7.78526306 72.87457275 C7.78587599 73.56544357 7.78648893 74.25631439 7.78712043 74.96812069 C7.78839936 76.37171985 7.78969622 77.775319 7.7910108 79.17891812 C7.80241025 92.33286729 7.7893129 105.48670486 7.76780933 118.64063573 C7.74993889 129.92128699 7.75304318 141.20177359 7.77148438 152.48242188 C7.79290236 165.59008685 7.80131167 178.69765406 7.78903532 191.80533409 C7.78776116 193.20369846 7.78650367 194.60206285 7.78526306 196.00042725 C7.78464596 196.68840491 7.78402886 197.37638258 7.78339306 198.08520806 C7.77994293 202.92761787 7.7857612 207.76996554 7.79518127 212.61236572 C7.80758718 219.1328155 7.79872348 225.65300266 7.77560425 232.17343903 C7.77031431 234.56675958 7.77183575 236.96010629 7.78065491 239.35341644 C7.79158211 242.61991638 7.77787961 245.8854191 7.75793457 249.15185547 C7.7713189 250.57321399 7.7713189 250.57321399 7.78497362 252.02328682 C7.71403578 258.01107881 6.70256208 261.51146503 3.25 266.4375 C0.1339317 269.39776488 -3.48886994 270.68150188 -7.75 270.9375 C-12.01113006 270.68150188 -15.6339317 269.39776488 -18.75 266.4375 C-22.84265885 260.59617234 -23.32586757 256.19110339 -23.2646637 249.15858459 C-23.27160922 248.13736006 -23.27855475 247.11613552 -23.28571075 246.06396478 C-23.30397595 242.64927187 -23.29371736 239.23527407 -23.28344727 235.82055664 C-23.29050594 233.36947612 -23.29925073 230.91839996 -23.30955505 228.46733093 C-23.32972735 222.50512996 -23.3310751 216.54320101 -23.32292951 210.58099372 C-23.31662289 205.73376567 -23.31777259 200.88659324 -23.32420158 196.03936577 C-23.32555407 195.00349262 -23.32555407 195.00349262 -23.32693387 193.94669275 C-23.32878512 192.54365932 -23.33064769 191.14062591 -23.33252143 189.73759251 C-23.34909065 176.58838733 -23.34038828 163.43928952 -23.32353585 150.29009079 C-23.30884048 138.26810708 -23.32346642 126.24637333 -23.35230602 114.22442181 C-23.38171976 101.87083874 -23.3926665 89.51737095 -23.38312382 77.1637544 C-23.3821013 75.76565295 -23.38110668 74.36755149 -23.3801403 72.96945 C-23.37966391 72.28161304 -23.37918752 71.59377609 -23.3786967 70.88509559 C-23.37653512 66.04614059 -23.38632293 61.20729506 -23.40091133 56.36836433 C-23.42028826 49.85033819 -23.41332142 43.3327016 -23.38871193 36.81466866 C-23.38370097 34.42337781 -23.38720106 32.03205162 -23.39986038 29.64078903 C-23.41578354 26.37445774 -23.40084499 23.10965813 -23.37818909 19.84339905 C-23.39002482 18.89873954 -23.40186054 17.95408004 -23.41405493 16.98079449 C-23.32504186 10.65731456 -21.89238393 6.29726318 -17.75 1.4375 C-12.23237719 -2.48614289 -6.02652131 -2.99390352 0 0 Z " fill="#979CA7" transform="translate(263.75,181.5625)"/>
<path d="M0 0 C1.17033279 -0.00852997 2.34066559 -0.01705994 3.54646301 -0.02584839 C4.81671326 -0.02494202 6.0869635 -0.02403564 7.39570618 -0.02310181 C8.75804002 -0.02909167 10.12037049 -0.03589827 11.48269653 -0.04345703 C15.17306303 -0.0610817 18.8633367 -0.06581103 22.55374122 -0.0670886 C24.86382806 -0.06851323 27.17389153 -0.07278881 29.48397255 -0.07808304 C37.55612808 -0.09657451 45.62821767 -0.10475512 53.70039368 -0.10317993 C61.20305619 -0.10198008 68.70543031 -0.12305372 76.20801991 -0.15466726 C82.66602249 -0.18090111 89.12393133 -0.1915442 95.58198673 -0.19026911 C99.43158892 -0.18976139 103.28093491 -0.19533835 107.13048363 -0.21662521 C110.75612389 -0.23612702 114.38126678 -0.23605173 118.00692558 -0.22159195 C119.95497449 -0.21853581 121.90302409 -0.23509807 123.85099792 -0.25247192 C136.72088594 -0.16131836 146.37164754 3.77405702 156.03755188 12.26742554 C163.48556861 20.1852615 169.3472185 30.22976318 169.23286438 41.32211304 C169.22786926 42.3222644 169.22287415 43.32241577 169.21772766 44.35287476 C169.19951965 45.60342651 169.18131165 46.85397827 169.16255188 48.14242554 C169.12130188 52.14367554 169.08005188 56.14492554 169.03755188 60.26742554 C159.13755188 60.26742554 149.23755188 60.26742554 139.03755188 60.26742554 C138.84223938 56.58904012 138.64692688 52.9106547 138.45161438 49.23226929 C137.89835937 43.93459161 137.15085382 39.69881375 133.85005188 35.45492554 C127.4227731 30.45593093 120.13804281 30.97955818 112.33833313 31.00863647 C111.17812653 31.00513184 110.01791992 31.0016272 108.82255554 30.99801636 C104.99832628 30.98923439 101.17428293 30.99503586 97.35005188 31.00180054 C94.68639395 31.00045287 92.02274161 30.99851438 89.35908508 30.9960022 C83.78085832 30.99237015 78.20268463 30.99714163 72.62446594 31.00668335 C66.18798602 31.01756646 59.75163284 31.01404034 53.31515598 31.00303054 C47.77523754 30.99393593 42.23535711 30.99268299 36.69543362 30.99790788 C33.39266986 31.00101565 30.08997826 31.00067716 26.78721619 30.9948349 C23.10364752 30.9897488 19.42032127 30.99750956 15.73677063 31.00863647 C14.65084625 31.00458801 13.56492188 31.00053955 12.4460907 30.99636841 C5.59879091 31.03463255 -0.18259623 31.10531851 -5.77494812 35.45492554 C-9.88131222 40.73453652 -10.24141761 46.68801752 -10.58744812 53.20492554 C-10.71119812 55.53555054 -10.83494812 57.86617554 -10.96244812 60.26742554 C-20.86244812 60.26742554 -30.76244812 60.26742554 -40.96244812 60.26742554 C-41.04494812 56.36930054 -41.12744812 52.47117554 -41.21244812 48.45492554 C-41.24886414 47.2498938 -41.28528015 46.04486206 -41.32279968 44.80331421 C-41.45050593 32.17790424 -37.25970338 22.71014258 -28.96244812 13.26742554 C-21.05913175 5.83306686 -11.0577088 0.03660117 0 0 Z " fill="#53565C" transform="translate(191.9624481201172,-0.267425537109375)"/>
<path d="M0 0 C0 89.76 0 179.52 0 272 C-7.52112676 270.74647887 -7.52112676 270.74647887 -11 268 C-15.1312397 262.19288596 -15.57573275 257.73811247 -15.5146637 250.72108459 C-15.52160922 249.69986006 -15.52855475 248.67863552 -15.53571075 247.62646478 C-15.55397595 244.21177187 -15.54371736 240.79777407 -15.53344727 237.38305664 C-15.54050594 234.93197612 -15.54925073 232.48089996 -15.55955505 230.02983093 C-15.57972735 224.06762996 -15.5810751 218.10570101 -15.57292951 212.14349372 C-15.56662289 207.29626567 -15.56777259 202.44909324 -15.57420158 197.60186577 C-15.57555407 196.56599262 -15.57555407 196.56599262 -15.57693387 195.50919275 C-15.57878512 194.10615932 -15.58064769 192.70312591 -15.58252143 191.30009251 C-15.59909065 178.15088733 -15.59038828 165.00178952 -15.57353585 151.85259079 C-15.55884048 139.83060708 -15.57346642 127.80887333 -15.60230602 115.78692181 C-15.63171976 103.43333874 -15.6426665 91.07987095 -15.63312382 78.7262544 C-15.6321013 77.32815295 -15.63110668 75.93005149 -15.6301403 74.53195 C-15.62966391 73.84411304 -15.62918752 73.15627609 -15.6286967 72.44759559 C-15.62653512 67.60864059 -15.63632293 62.76979506 -15.65091133 57.93086433 C-15.67028826 51.41283819 -15.66332142 44.8952016 -15.63871193 38.37716866 C-15.63370097 35.98587781 -15.63720106 33.59455162 -15.64986038 31.20328903 C-15.66578354 27.93695774 -15.65084499 24.67215813 -15.62818909 21.40589905 C-15.64002482 20.46123954 -15.65186054 19.51658004 -15.66405493 18.54329449 C-15.57540893 12.2458908 -14.17766094 7.81385561 -10 3 C-6.22653309 0.53569508 -4.53886709 0 0 0 Z " fill="#A1A7B3" transform="translate(256,180)"/>
<path d="M0 0 C0.6836261 -0.00029205 1.3672522 -0.00058411 2.07159424 -0.00088501 C4.31169718 0.00049868 6.5514597 0.01601394 8.79150391 0.03173828 C10.35234394 0.03547184 11.91318632 0.03831719 13.47402954 0.04031372 C17.56755121 0.04792321 21.6609293 0.06754841 25.75439453 0.08972168 C29.93731749 0.11023815 34.12026381 0.11932781 38.30322266 0.12939453 C46.49991023 0.15079705 54.69645388 0.18595708 62.89306641 0.22705078 C62.89306641 10.12705078 62.89306641 20.02705078 62.89306641 30.22705078 C58.64302734 30.27603516 54.39298828 30.32501953 50.01416016 30.37548828 C46.61199503 30.42006778 43.20986796 30.46656104 39.80774689 30.51434326 C36.22383865 30.56415608 32.63995976 30.61064582 29.0559082 30.64892578 C25.59983364 30.6859698 22.14399702 30.73237964 18.68812752 30.78511429 C16.7368616 30.81249434 14.78546927 30.83033088 12.83409119 30.84799194 C2.28630699 30.86165512 2.28630699 30.86165512 -6.91943359 35.41455078 C-11.02579769 40.69416176 -11.38590308 46.64764277 -11.73193359 53.16455078 C-11.85568359 55.49517578 -11.97943359 57.82580078 -12.10693359 60.22705078 C-22.00693359 60.22705078 -31.90693359 60.22705078 -42.10693359 60.22705078 C-42.18943359 56.32892578 -42.27193359 52.43080078 -42.35693359 48.41455078 C-42.39334961 47.20951904 -42.42976562 46.0044873 -42.46728516 44.76293945 C-42.5949914 32.13752948 -38.40418885 22.66976782 -30.10693359 13.22705078 C-21.71137449 5.32965749 -11.66594034 -0.04211531 0 0 Z " fill="#5C5F66" transform="translate(193.10693359375,-0.22705078125)"/>
</svg>
